<svg width="18" height="18" viewBox="0 0 18 18" fill="none" xmlns="http://www.w3.org/2000/svg">
<path d="M10.5167 17.3334H7.48334C7.09176 17.3334 6.75296 17.0609 6.66917 16.6784L6.33 15.1084C5.87754 14.9102 5.44852 14.6623 5.05084 14.3692L3.52 14.8567C3.14667 14.9758 2.74082 14.8187 2.545 14.4792L1.025 11.8534C0.831325 11.5138 0.898051 11.0855 1.18584 10.8209L2.37334 9.73758C2.31933 9.24684 2.31933 8.75166 2.37334 8.26091L1.18584 7.18008C0.897627 6.91539 0.830875 6.48652 1.025 6.14675L2.54167 3.51925C2.73749 3.17983 3.14334 3.0227 3.51667 3.14175L5.0475 3.62925C5.25089 3.47854 5.46261 3.33944 5.68167 3.21258C5.89195 3.09399 6.10837 2.98662 6.33 2.89091L6.67 1.32258C6.75339 0.940055 7.09183 0.66716 7.48334 0.666748H10.5167C10.9082 0.66716 11.2466 0.940055 11.33 1.32258L11.6733 2.89175C11.9073 2.99468 12.1352 3.11098 12.3558 3.24008C12.5619 3.35906 12.7611 3.48955 12.9525 3.63091L14.4842 3.14341C14.8572 3.02481 15.2626 3.18188 15.4583 3.52091L16.975 6.14842C17.1687 6.48799 17.102 6.91634 16.8142 7.18091L15.6267 8.26425C15.6807 8.75499 15.6807 9.25017 15.6267 9.74092L16.8142 10.8242C17.102 11.0888 17.1687 11.5172 16.975 11.8567L15.4583 14.4842C15.2626 14.8233 14.8572 14.9804 14.4842 14.8617L12.9525 14.3742C12.7587 14.517 12.5573 14.6491 12.3492 14.7701C12.1307 14.8967 11.9053 15.011 11.6742 15.1126L11.33 16.6784C11.2463 17.0606 10.9079 17.3331 10.5167 17.3334ZM8.99667 5.66675C7.15572 5.66675 5.66333 7.15913 5.66333 9.00008C5.66333 10.841 7.15572 12.3334 8.99667 12.3334C10.8376 12.3334 12.33 10.841 12.33 9.00008C12.33 7.15913 10.8376 5.66675 8.99667 5.66675Z" fill="#51515C"/>
</svg>
