<svg width="885" height="305" viewBox="0 0 885 305" fill="none" xmlns="http://www.w3.org/2000/svg">
<path d="M857.39 299.845V296.29C857.77 296.24 858.065 296.14 858.275 295.99C858.495 295.84 858.695 295.535 858.875 295.075C859.055 294.615 859.195 293.96 859.295 293.11L859.88 287.995H866.99V296.125H867.89V299.845H865.76V298H859.52V299.845H857.39ZM861.41 293.26C861.27 294.55 860.865 295.505 860.195 296.125H864.845V289.87H861.8L861.41 293.26ZM872.497 298.18C871.377 298.18 870.452 297.83 869.722 297.13C868.992 296.43 868.627 295.51 868.627 294.37C868.627 293.3 868.977 292.4 869.677 291.67C870.387 290.94 871.287 290.575 872.377 290.575C873.457 290.575 874.332 290.945 875.002 291.685C875.672 292.415 876.007 293.375 876.007 294.565V294.985H870.622C870.682 295.465 870.897 295.865 871.267 296.185C871.637 296.505 872.117 296.665 872.707 296.665C873.027 296.665 873.372 296.6 873.742 296.47C874.122 296.34 874.422 296.165 874.642 295.945L875.482 297.175C874.752 297.845 873.757 298.18 872.497 298.18ZM874.162 293.695C874.132 293.285 873.967 292.915 873.667 292.585C873.377 292.255 872.947 292.09 872.377 292.09C871.837 292.09 871.417 292.255 871.117 292.585C870.817 292.905 870.642 293.275 870.592 293.695H874.162ZM884.463 298H882.078L880.158 295.21L879.288 296.14V298H877.383V290.755H879.288V293.98L882.033 290.755H884.373L881.508 294.04L884.463 298Z" fill="#51515C"/>
<path d="M790.99 298H788.845V293.8H784.12V298H781.99V287.995H784.12V291.925H788.845V287.995H790.99V298ZM799.067 297.085C798.367 297.815 797.437 298.18 796.277 298.18C795.117 298.18 794.187 297.815 793.487 297.085C792.797 296.345 792.452 295.44 792.452 294.37C792.452 293.3 792.797 292.4 793.487 291.67C794.187 290.94 795.117 290.575 796.277 290.575C797.437 290.575 798.367 290.94 799.067 291.67C799.767 292.4 800.117 293.3 800.117 294.37C800.117 295.44 799.767 296.345 799.067 297.085ZM794.927 295.885C795.257 296.285 795.707 296.485 796.277 296.485C796.847 296.485 797.297 296.285 797.627 295.885C797.967 295.475 798.137 294.97 798.137 294.37C798.137 293.78 797.967 293.285 797.627 292.885C797.297 292.475 796.847 292.27 796.277 292.27C795.707 292.27 795.257 292.475 794.927 292.885C794.597 293.285 794.432 293.78 794.432 294.37C794.432 294.97 794.597 295.475 794.927 295.885ZM803.45 298H801.29L802.97 295.375C802.52 295.265 802.14 295.015 801.83 294.625C801.52 294.235 801.365 293.735 801.365 293.125C801.365 292.455 801.59 291.895 802.04 291.445C802.49 290.985 803.1 290.755 803.87 290.755H808.265V298H806.36V295.51H804.875L803.45 298ZM804.17 293.92H806.36V292.36H804.17C803.91 292.36 803.7 292.43 803.54 292.57C803.38 292.71 803.3 292.895 803.3 293.125C803.3 293.365 803.375 293.56 803.525 293.71C803.685 293.85 803.9 293.92 804.17 293.92Z" fill="#51515C"/>
<path d="M713.73 298.18C712.22 298.18 710.97 297.695 709.98 296.725C709 295.745 708.51 294.505 708.51 293.005C708.51 291.505 709 290.27 709.98 289.3C710.97 288.32 712.22 287.83 713.73 287.83C715.25 287.83 716.5 288.315 717.48 289.285C718.47 290.255 718.965 291.495 718.965 293.005C718.965 294.515 718.47 295.755 717.48 296.725C716.5 297.695 715.25 298.18 713.73 298.18ZM711.525 295.36C712.085 295.98 712.82 296.29 713.73 296.29C714.64 296.29 715.375 295.98 715.935 295.36C716.495 294.74 716.775 293.955 716.775 293.005C716.775 292.055 716.495 291.27 715.935 290.65C715.375 290.03 714.64 289.72 713.73 289.72C712.82 289.72 712.085 290.03 711.525 290.65C710.975 291.27 710.7 292.055 710.7 293.005C710.7 293.955 710.975 294.74 711.525 295.36ZM727.495 298H725.11L723.19 295.21L722.32 296.14V298H720.415V290.755H722.32V293.98L725.065 290.755H727.405L724.54 294.04L727.495 298ZM731.697 298H729.777V292.42H727.752V290.755H733.722V292.42H731.697V298Z" fill="#51515C"/>
<path d="M638.835 298.18C637.315 298.18 636.045 297.7 635.025 296.74C634.015 295.77 633.51 294.525 633.51 293.005C633.51 291.485 634.015 290.245 635.025 289.285C636.045 288.315 637.315 287.83 638.835 287.83C640.705 287.83 642.1 288.645 643.02 290.275L641.19 291.175C640.97 290.755 640.645 290.41 640.215 290.14C639.795 289.86 639.335 289.72 638.835 289.72C637.925 289.72 637.175 290.03 636.585 290.65C635.995 291.27 635.7 292.055 635.7 293.005C635.7 293.955 635.995 294.74 636.585 295.36C637.175 295.98 637.925 296.29 638.835 296.29C639.335 296.29 639.795 296.155 640.215 295.885C640.645 295.615 640.97 295.265 641.19 294.835L643.02 295.72C642.07 297.36 640.675 298.18 638.835 298.18ZM647.648 298.18C646.528 298.18 645.603 297.83 644.873 297.13C644.143 296.43 643.778 295.51 643.778 294.37C643.778 293.3 644.128 292.4 644.828 291.67C645.538 290.94 646.438 290.575 647.528 290.575C648.608 290.575 649.483 290.945 650.153 291.685C650.823 292.415 651.158 293.375 651.158 294.565V294.985H645.773C645.833 295.465 646.048 295.865 646.418 296.185C646.788 296.505 647.268 296.665 647.858 296.665C648.178 296.665 648.523 296.6 648.893 296.47C649.273 296.34 649.573 296.165 649.793 295.945L650.633 297.175C649.903 297.845 648.908 298.18 647.648 298.18ZM649.313 293.695C649.283 293.285 649.118 292.915 648.818 292.585C648.528 292.255 648.098 292.09 647.528 292.09C646.988 292.09 646.568 292.255 646.268 292.585C645.968 292.905 645.793 293.275 645.743 293.695H649.313ZM654.439 298H652.534V290.755H654.439V293.44H657.439V290.755H659.344V298H657.439V295.105H654.439V298Z" fill="#51515C"/>
<path d="M570.32 298H567.89L567.275 296.305H562.985L562.355 298H559.925L563.795 287.995H566.465L570.32 298ZM566.69 294.43L565.13 290.125L563.57 294.43H566.69ZM575.924 298H571.199V290.755H575.789C576.489 290.755 577.034 290.935 577.424 291.295C577.814 291.655 578.009 292.095 578.009 292.615C578.009 293.035 577.894 293.39 577.664 293.68C577.434 293.97 577.139 294.165 576.779 294.265C577.179 294.355 577.509 294.565 577.769 294.895C578.029 295.225 578.159 295.605 578.159 296.035C578.159 296.605 577.959 297.075 577.559 297.445C577.169 297.815 576.624 298 575.924 298ZM575.459 296.44C575.689 296.44 575.869 296.38 575.999 296.26C576.139 296.14 576.209 295.975 576.209 295.765C576.209 295.575 576.139 295.415 575.999 295.285C575.869 295.155 575.689 295.09 575.459 295.09H573.104V296.44H575.459ZM575.399 293.53C575.599 293.53 575.759 293.475 575.879 293.365C576.009 293.245 576.074 293.1 576.074 292.93C576.074 292.75 576.014 292.605 575.894 292.495C575.774 292.375 575.609 292.315 575.399 292.315H573.104V293.53H575.399ZM585.583 290.755V292.42H581.893V298H579.988V290.755H585.583Z" fill="#51515C"/>
<path d="M484.045 298H481.99V287.995H484.12V294.46L488.755 287.995H490.945V298H488.815V291.295L484.045 298ZM499.743 298.18C498.733 298.18 497.893 297.895 497.223 297.325C496.553 296.745 496.138 296.005 495.978 295.105H494.778V298H492.873V290.755H494.778V293.44H496.023C496.213 292.6 496.638 291.915 497.298 291.385C497.958 290.845 498.773 290.575 499.743 290.575C500.903 290.575 501.833 290.94 502.533 291.67C503.233 292.4 503.583 293.3 503.583 294.37C503.583 295.44 503.233 296.345 502.533 297.085C501.833 297.815 500.903 298.18 499.743 298.18ZM499.743 296.485C500.323 296.485 500.778 296.285 501.108 295.885C501.438 295.475 501.603 294.97 501.603 294.37C501.603 293.78 501.438 293.285 501.108 292.885C500.778 292.475 500.323 292.27 499.743 292.27C499.173 292.27 498.723 292.475 498.393 292.885C498.063 293.285 497.898 293.78 497.898 294.37C497.898 294.97 498.063 295.475 498.393 295.885C498.723 296.285 499.173 296.485 499.743 296.485ZM504.327 298.18V296.62C504.627 296.62 504.867 296.445 505.047 296.095C505.227 295.735 505.372 295.125 505.482 294.265L505.947 290.755H511.812V298H509.907V292.42H507.612L507.372 294.49C507.222 295.76 506.902 296.695 506.412 297.295C505.932 297.885 505.237 298.18 504.327 298.18Z" fill="#51515C"/>
<path d="M405.045 298H402.99V287.995H405.12V294.46L409.755 287.995H411.945V298H409.815V291.295L405.045 298ZM420.743 298.18C419.733 298.18 418.893 297.895 418.223 297.325C417.553 296.745 417.138 296.005 416.978 295.105H415.778V298H413.873V290.755H415.778V293.44H417.023C417.213 292.6 417.638 291.915 418.298 291.385C418.958 290.845 419.773 290.575 420.743 290.575C421.903 290.575 422.833 290.94 423.533 291.67C424.233 292.4 424.583 293.3 424.583 294.37C424.583 295.44 424.233 296.345 423.533 297.085C422.833 297.815 421.903 298.18 420.743 298.18ZM420.743 296.485C421.323 296.485 421.778 296.285 422.108 295.885C422.438 295.475 422.603 294.97 422.603 294.37C422.603 293.78 422.438 293.285 422.108 292.885C421.778 292.475 421.323 292.27 420.743 292.27C420.173 292.27 419.723 292.475 419.393 292.885C419.063 293.285 418.898 293.78 418.898 294.37C418.898 294.97 419.063 295.475 419.393 295.885C419.723 296.285 420.173 296.485 420.743 296.485ZM427.907 298H426.002V290.755H427.907V293.44H430.907V290.755H432.812V298H430.907V295.105H427.907V298Z" fill="#51515C"/>
<path d="M336.835 298H334.69V290.995L331.87 298H330.94L328.12 290.995V298H325.99V287.995H328.975L331.405 294.04L333.835 287.995H336.835V298ZM345.032 298H343.127V297.25C342.607 297.87 341.842 298.18 340.832 298.18C340.182 298.18 339.597 297.97 339.077 297.55C338.567 297.12 338.312 296.53 338.312 295.78C338.312 295 338.562 294.415 339.062 294.025C339.572 293.635 340.162 293.44 340.832 293.44C341.862 293.44 342.627 293.735 343.127 294.325V293.35C343.127 292.98 342.982 292.685 342.692 292.465C342.402 292.245 342.017 292.135 341.537 292.135C340.747 292.135 340.042 292.42 339.422 292.99L338.702 291.715C339.562 290.955 340.617 290.575 341.867 290.575C342.797 290.575 343.557 290.79 344.147 291.22C344.737 291.65 345.032 292.35 345.032 293.32V298ZM341.597 296.89C342.307 296.89 342.817 296.68 343.127 296.26V295.36C342.817 294.94 342.307 294.73 341.597 294.73C341.207 294.73 340.882 294.83 340.622 295.03C340.362 295.22 340.232 295.485 340.232 295.825C340.232 296.155 340.362 296.415 340.622 296.605C340.882 296.795 341.207 296.89 341.597 296.89ZM348.752 298H346.922V290.755H348.827V295.135L351.812 290.755H353.732V298H351.827V293.455L348.752 298ZM352.952 288.715C352.302 289.595 351.427 290.035 350.327 290.035C349.237 290.035 348.357 289.595 347.687 288.715L348.527 288.01C348.967 288.63 349.567 288.94 350.327 288.94C351.067 288.94 351.662 288.63 352.112 288.01L352.952 288.715Z" fill="#51515C"/>
<path d="M260.32 298H257.89L257.275 296.305H252.985L252.355 298H249.925L253.795 287.995H256.465L260.32 298ZM256.69 294.43L255.13 290.125L253.57 294.43H256.69ZM268.009 298H266.104V292.42H263.104V298H261.199V290.755H268.009V298ZM274.04 298.18C273.13 298.18 272.385 297.81 271.805 297.07V300.76H269.9V290.755H271.805V291.67C272.375 290.94 273.12 290.575 274.04 290.575C274.99 290.575 275.76 290.915 276.35 291.595C276.95 292.265 277.25 293.19 277.25 294.37C277.25 295.55 276.95 296.48 276.35 297.16C275.76 297.84 274.99 298.18 274.04 298.18ZM273.44 296.485C273.99 296.485 274.43 296.29 274.76 295.9C275.1 295.51 275.27 295 275.27 294.37C275.27 293.75 275.1 293.245 274.76 292.855C274.43 292.465 273.99 292.27 273.44 292.27C273.13 292.27 272.82 292.35 272.51 292.51C272.2 292.67 271.965 292.865 271.805 293.095V295.66C271.965 295.89 272.2 296.085 272.51 296.245C272.83 296.405 273.14 296.485 273.44 296.485Z" fill="#51515C"/>
<path d="M184.835 298H182.69V290.995L179.87 298H178.94L176.12 290.995V298H173.99V287.995H176.975L179.405 294.04L181.835 287.995H184.835V298ZM193.032 298H191.127V297.25C190.607 297.87 189.842 298.18 188.832 298.18C188.182 298.18 187.597 297.97 187.077 297.55C186.567 297.12 186.312 296.53 186.312 295.78C186.312 295 186.562 294.415 187.062 294.025C187.572 293.635 188.162 293.44 188.832 293.44C189.862 293.44 190.627 293.735 191.127 294.325V293.35C191.127 292.98 190.982 292.685 190.692 292.465C190.402 292.245 190.017 292.135 189.537 292.135C188.747 292.135 188.042 292.42 187.422 292.99L186.702 291.715C187.562 290.955 188.617 290.575 189.867 290.575C190.797 290.575 191.557 290.79 192.147 291.22C192.737 291.65 193.032 292.35 193.032 293.32V298ZM189.597 296.89C190.307 296.89 190.817 296.68 191.127 296.26V295.36C190.817 294.94 190.307 294.73 189.597 294.73C189.207 294.73 188.882 294.83 188.622 295.03C188.362 295.22 188.232 295.485 188.232 295.825C188.232 296.155 188.362 296.415 188.622 296.605C188.882 296.795 189.207 296.89 189.597 296.89ZM199.062 298.18C198.152 298.18 197.407 297.81 196.827 297.07V300.76H194.922V290.755H196.827V291.67C197.397 290.94 198.142 290.575 199.062 290.575C200.012 290.575 200.782 290.915 201.372 291.595C201.972 292.265 202.272 293.19 202.272 294.37C202.272 295.55 201.972 296.48 201.372 297.16C200.782 297.84 200.012 298.18 199.062 298.18ZM198.462 296.485C199.012 296.485 199.452 296.29 199.782 295.9C200.122 295.51 200.292 295 200.292 294.37C200.292 293.75 200.122 293.245 199.782 292.855C199.452 292.465 199.012 292.27 198.462 292.27C198.152 292.27 197.842 292.35 197.532 292.51C197.222 292.67 196.987 292.865 196.827 293.095V295.66C196.987 295.89 197.222 296.085 197.532 296.245C197.852 296.405 198.162 296.485 198.462 296.485Z" fill="#51515C"/>
<path d="M103.47 298H101.34V296.995C99.81 296.865 98.62 296.455 97.77 295.765C96.93 295.075 96.51 294.155 96.51 293.005C96.51 291.865 96.93 290.95 97.77 290.26C98.62 289.57 99.81 289.155 101.34 289.015V287.995H103.47V289.015C105 289.155 106.185 289.57 107.025 290.26C107.875 290.94 108.3 291.855 108.3 293.005C108.3 294.155 107.875 295.075 107.025 295.765C106.185 296.455 105 296.865 103.47 296.995V298ZM105.435 294.4C105.895 294.04 106.125 293.575 106.125 293.005C106.125 292.435 105.895 291.97 105.435 291.61C104.985 291.25 104.33 291.02 103.47 290.92V295.09C104.33 294.99 104.985 294.76 105.435 294.4ZM99.375 291.61C98.925 291.97 98.7 292.435 98.7 293.005C98.7 293.575 98.925 294.04 99.375 294.4C99.825 294.76 100.48 294.99 101.34 295.09V290.92C100.48 291.02 99.825 291.25 99.375 291.61ZM113.182 298.18C112.062 298.18 111.137 297.83 110.407 297.13C109.677 296.43 109.312 295.51 109.312 294.37C109.312 293.3 109.662 292.4 110.362 291.67C111.072 290.94 111.972 290.575 113.062 290.575C114.142 290.575 115.017 290.945 115.687 291.685C116.357 292.415 116.692 293.375 116.692 294.565V294.985H111.307C111.367 295.465 111.582 295.865 111.952 296.185C112.322 296.505 112.802 296.665 113.392 296.665C113.712 296.665 114.057 296.6 114.427 296.47C114.807 296.34 115.107 296.165 115.327 295.945L116.167 297.175C115.437 297.845 114.442 298.18 113.182 298.18ZM114.847 293.695C114.817 293.285 114.652 292.915 114.352 292.585C114.062 292.255 113.632 292.09 113.062 292.09C112.522 292.09 112.102 292.255 111.802 292.585C111.502 292.905 111.327 293.275 111.277 293.695H114.847ZM122.793 298H118.068V290.755H122.658C123.358 290.755 123.903 290.935 124.293 291.295C124.683 291.655 124.878 292.095 124.878 292.615C124.878 293.035 124.763 293.39 124.533 293.68C124.303 293.97 124.008 294.165 123.648 294.265C124.048 294.355 124.378 294.565 124.638 294.895C124.898 295.225 125.028 295.605 125.028 296.035C125.028 296.605 124.828 297.075 124.428 297.445C124.038 297.815 123.493 298 122.793 298ZM122.328 296.44C122.558 296.44 122.738 296.38 122.868 296.26C123.008 296.14 123.078 295.975 123.078 295.765C123.078 295.575 123.008 295.415 122.868 295.285C122.738 295.155 122.558 295.09 122.328 295.09H119.973V296.44H122.328ZM122.268 293.53C122.468 293.53 122.628 293.475 122.748 293.365C122.878 293.245 122.943 293.1 122.943 292.93C122.943 292.75 122.883 292.605 122.763 292.495C122.643 292.375 122.478 292.315 122.268 292.315H119.973V293.53H122.268Z" fill="#51515C"/>
<path d="M24.5 298H22.055L24.305 294.19C23.695 294.05 23.175 293.725 22.745 293.215C22.325 292.705 22.115 292.04 22.115 291.22C22.115 290.27 22.415 289.495 23.015 288.895C23.625 288.295 24.445 287.995 25.475 287.995H30.155V298H28.025V294.445H26.48L24.5 298ZM25.79 292.57H28.025V289.87H25.79C25.35 289.87 24.99 289.995 24.71 290.245C24.43 290.485 24.29 290.81 24.29 291.22C24.29 291.63 24.43 291.96 24.71 292.21C24.99 292.45 25.35 292.57 25.79 292.57ZM33.9887 298H32.0837V290.755H33.9887V293.44H36.9887V290.755H38.8937V298H36.9887V295.105H33.9887V298ZM45.5098 298H40.7848V290.755H45.3748C46.0748 290.755 46.6198 290.935 47.0098 291.295C47.3998 291.655 47.5948 292.095 47.5948 292.615C47.5948 293.035 47.4798 293.39 47.2498 293.68C47.0198 293.97 46.7248 294.165 46.3648 294.265C46.7648 294.355 47.0948 294.565 47.3548 294.895C47.6148 295.225 47.7448 295.605 47.7448 296.035C47.7448 296.605 47.5448 297.075 47.1448 297.445C46.7548 297.815 46.2098 298 45.5098 298ZM45.0448 296.44C45.2748 296.44 45.4548 296.38 45.5848 296.26C45.7248 296.14 45.7948 295.975 45.7948 295.765C45.7948 295.575 45.7248 295.415 45.5848 295.285C45.4548 295.155 45.2748 295.09 45.0448 295.09H42.6898V296.44H45.0448ZM44.9848 293.53C45.1848 293.53 45.3448 293.475 45.4648 293.365C45.5948 293.245 45.6598 293.1 45.6598 292.93C45.6598 292.75 45.5998 292.605 45.4798 292.495C45.3598 292.375 45.1948 292.315 44.9848 292.315H42.6898V293.53H44.9848Z" fill="#51515C"/>
<path d="M18.475 265.915C17.835 266.425 17.06 266.68 16.15 266.68C15.24 266.68 14.46 266.425 13.81 265.915C13.17 265.395 12.71 264.755 12.43 263.995C12.15 263.235 12.01 262.405 12.01 261.505C12.01 260.605 12.15 259.775 12.43 259.015C12.71 258.255 13.17 257.62 13.81 257.11C14.46 256.6 15.24 256.345 16.15 256.345C17.06 256.345 17.835 256.6 18.475 257.11C19.115 257.62 19.575 258.255 19.855 259.015C20.145 259.775 20.29 260.605 20.29 261.505C20.29 262.405 20.145 263.235 19.855 263.995C19.575 264.755 19.115 265.395 18.475 265.915ZM14.65 263.89C14.97 264.49 15.47 264.79 16.15 264.79C16.83 264.79 17.325 264.49 17.635 263.89C17.955 263.29 18.115 262.495 18.115 261.505C18.115 260.515 17.955 259.725 17.635 259.135C17.325 258.535 16.83 258.235 16.15 258.235C15.47 258.235 14.97 258.535 14.65 259.135C14.33 259.725 14.17 260.515 14.17 261.505C14.17 262.495 14.33 263.29 14.65 263.89Z" fill="#51515C"/>
<path d="M5.675 216.5H3.545V209.24L1.88 210.935L0.665 209.66L3.815 206.495H5.675V216.5ZM13.642 215.915C13.002 216.425 12.227 216.68 11.317 216.68C10.407 216.68 9.62699 216.425 8.97699 215.915C8.33699 215.395 7.87699 214.755 7.59699 213.995C7.31699 213.235 7.17699 212.405 7.17699 211.505C7.17699 210.605 7.31699 209.775 7.59699 209.015C7.87699 208.255 8.33699 207.62 8.97699 207.11C9.62699 206.6 10.407 206.345 11.317 206.345C12.227 206.345 13.002 206.6 13.642 207.11C14.282 207.62 14.742 208.255 15.022 209.015C15.312 209.775 15.457 210.605 15.457 211.505C15.457 212.405 15.312 213.235 15.022 213.995C14.742 214.755 14.282 215.395 13.642 215.915ZM9.81699 213.89C10.137 214.49 10.637 214.79 11.317 214.79C11.997 214.79 12.492 214.49 12.802 213.89C13.122 213.29 13.282 212.495 13.282 211.505C13.282 210.515 13.122 209.725 12.802 209.135C12.492 208.535 11.997 208.235 11.317 208.235C10.637 208.235 10.137 208.535 9.81699 209.135C9.49699 209.725 9.33699 210.515 9.33699 211.505C9.33699 212.495 9.49699 213.29 9.81699 213.89ZM22.9438 215.915C22.3038 216.425 21.5288 216.68 20.6188 216.68C19.7088 216.68 18.9288 216.425 18.2788 215.915C17.6388 215.395 17.1788 214.755 16.8988 213.995C16.6188 213.235 16.4788 212.405 16.4788 211.505C16.4788 210.605 16.6188 209.775 16.8988 209.015C17.1788 208.255 17.6388 207.62 18.2788 207.11C18.9288 206.6 19.7088 206.345 20.6188 206.345C21.5288 206.345 22.3038 206.6 22.9438 207.11C23.5838 207.62 24.0438 208.255 24.3238 209.015C24.6138 209.775 24.7588 210.605 24.7588 211.505C24.7588 212.405 24.6138 213.235 24.3238 213.995C24.0438 214.755 23.5838 215.395 22.9438 215.915ZM19.1188 213.89C19.4388 214.49 19.9388 214.79 20.6188 214.79C21.2988 214.79 21.7938 214.49 22.1038 213.89C22.4238 213.29 22.5838 212.495 22.5838 211.505C22.5838 210.515 22.4238 209.725 22.1038 209.135C21.7938 208.535 21.2988 208.235 20.6188 208.235C19.9388 208.235 19.4388 208.535 19.1188 209.135C18.7988 209.725 18.6388 210.515 18.6388 211.505C18.6388 212.495 18.7988 213.29 19.1188 213.89Z" fill="#51515C"/>
<path d="M8.735 166.5H1.205V164.835C3.345 163.245 4.76 162.115 5.45 161.445C6.15 160.765 6.5 160.13 6.5 159.54C6.5 159.13 6.34 158.81 6.02 158.58C5.7 158.35 5.32 158.235 4.88 158.235C3.83 158.235 2.935 158.62 2.195 159.39L0.98 157.98C1.45 157.44 2.025 157.035 2.705 156.765C3.395 156.485 4.105 156.345 4.835 156.345C5.935 156.345 6.845 156.635 7.565 157.215C8.295 157.795 8.66 158.57 8.66 159.54C8.66 160.36 8.335 161.165 7.685 161.955C7.045 162.735 6.035 163.625 4.655 164.625H8.735V166.5ZM16.4691 165.915C15.8291 166.425 15.0541 166.68 14.1441 166.68C13.2341 166.68 12.4541 166.425 11.8041 165.915C11.1641 165.395 10.7041 164.755 10.4241 163.995C10.1441 163.235 10.0041 162.405 10.0041 161.505C10.0041 160.605 10.1441 159.775 10.4241 159.015C10.7041 158.255 11.1641 157.62 11.8041 157.11C12.4541 156.6 13.2341 156.345 14.1441 156.345C15.0541 156.345 15.8291 156.6 16.4691 157.11C17.1091 157.62 17.5691 158.255 17.8491 159.015C18.1391 159.775 18.2841 160.605 18.2841 161.505C18.2841 162.405 18.1391 163.235 17.8491 163.995C17.5691 164.755 17.1091 165.395 16.4691 165.915ZM12.6441 163.89C12.9641 164.49 13.4641 164.79 14.1441 164.79C14.8241 164.79 15.3191 164.49 15.6291 163.89C15.9491 163.29 16.1091 162.495 16.1091 161.505C16.1091 160.515 15.9491 159.725 15.6291 159.135C15.3191 158.535 14.8241 158.235 14.1441 158.235C13.4641 158.235 12.9641 158.535 12.6441 159.135C12.3241 159.725 12.1641 160.515 12.1641 161.505C12.1641 162.495 12.3241 163.29 12.6441 163.89ZM25.7709 165.915C25.1309 166.425 24.3559 166.68 23.4459 166.68C22.5359 166.68 21.7559 166.425 21.1059 165.915C20.4659 165.395 20.0059 164.755 19.7259 163.995C19.4459 163.235 19.3059 162.405 19.3059 161.505C19.3059 160.605 19.4459 159.775 19.7259 159.015C20.0059 158.255 20.4659 157.62 21.1059 157.11C21.7559 156.6 22.5359 156.345 23.4459 156.345C24.3559 156.345 25.1309 156.6 25.7709 157.11C26.4109 157.62 26.8709 158.255 27.1509 159.015C27.4409 159.775 27.5859 160.605 27.5859 161.505C27.5859 162.405 27.4409 163.235 27.1509 163.995C26.8709 164.755 26.4109 165.395 25.7709 165.915ZM21.9459 163.89C22.2659 164.49 22.7659 164.79 23.4459 164.79C24.1259 164.79 24.6209 164.49 24.9309 163.89C25.2509 163.29 25.4109 162.495 25.4109 161.505C25.4109 160.515 25.2509 159.725 24.9309 159.135C24.6209 158.535 24.1259 158.235 23.4459 158.235C22.7659 158.235 22.2659 158.535 21.9459 159.135C21.6259 159.725 21.4659 160.515 21.4659 161.505C21.4659 162.495 21.6259 163.29 21.9459 163.89Z" fill="#51515C"/>
<path d="M4.745 116.68C3.865 116.68 3.085 116.535 2.405 116.245C1.725 115.945 1.19 115.555 0.8 115.075L1.91 113.65C2.25 114 2.67 114.28 3.17 114.49C3.67 114.69 4.17 114.79 4.67 114.79C5.27 114.79 5.735 114.675 6.065 114.445C6.395 114.205 6.56 113.895 6.56 113.515C6.56 113.115 6.4 112.825 6.08 112.645C5.76 112.455 5.25 112.36 4.55 112.36C3.92 112.36 3.505 112.37 3.305 112.39V110.47C3.425 110.48 3.84 110.485 4.55 110.485C5.78 110.485 6.395 110.13 6.395 109.42C6.395 109.04 6.22 108.75 5.87 108.55C5.53 108.34 5.085 108.235 4.535 108.235C3.565 108.235 2.72 108.58 2 109.27L0.935 107.935C1.875 106.875 3.15 106.345 4.76 106.345C5.93 106.345 6.85 106.59 7.52 107.08C8.2 107.57 8.54 108.23 8.54 109.06C8.54 109.66 8.325 110.165 7.895 110.575C7.465 110.975 6.95 111.23 6.35 111.34C6.94 111.4 7.475 111.645 7.955 112.075C8.445 112.495 8.69 113.05 8.69 113.74C8.69 114.61 8.33 115.32 7.61 115.87C6.89 116.41 5.935 116.68 4.745 116.68ZM16.2787 115.915C15.6387 116.425 14.8637 116.68 13.9537 116.68C13.0437 116.68 12.2637 116.425 11.6137 115.915C10.9737 115.395 10.5137 114.755 10.2337 113.995C9.95371 113.235 9.81371 112.405 9.81371 111.505C9.81371 110.605 9.95371 109.775 10.2337 109.015C10.5137 108.255 10.9737 107.62 11.6137 107.11C12.2637 106.6 13.0437 106.345 13.9537 106.345C14.8637 106.345 15.6387 106.6 16.2787 107.11C16.9187 107.62 17.3787 108.255 17.6587 109.015C17.9487 109.775 18.0937 110.605 18.0937 111.505C18.0937 112.405 17.9487 113.235 17.6587 113.995C17.3787 114.755 16.9187 115.395 16.2787 115.915ZM12.4537 113.89C12.7737 114.49 13.2737 114.79 13.9537 114.79C14.6337 114.79 15.1287 114.49 15.4387 113.89C15.7587 113.29 15.9187 112.495 15.9187 111.505C15.9187 110.515 15.7587 109.725 15.4387 109.135C15.1287 108.535 14.6337 108.235 13.9537 108.235C13.2737 108.235 12.7737 108.535 12.4537 109.135C12.1337 109.725 11.9737 110.515 11.9737 111.505C11.9737 112.495 12.1337 113.29 12.4537 113.89ZM25.5805 115.915C24.9405 116.425 24.1655 116.68 23.2555 116.68C22.3455 116.68 21.5655 116.425 20.9155 115.915C20.2755 115.395 19.8155 114.755 19.5355 113.995C19.2555 113.235 19.1155 112.405 19.1155 111.505C19.1155 110.605 19.2555 109.775 19.5355 109.015C19.8155 108.255 20.2755 107.62 20.9155 107.11C21.5655 106.6 22.3455 106.345 23.2555 106.345C24.1655 106.345 24.9405 106.6 25.5805 107.11C26.2205 107.62 26.6805 108.255 26.9605 109.015C27.2505 109.775 27.3955 110.605 27.3955 111.505C27.3955 112.405 27.2505 113.235 26.9605 113.995C26.6805 114.755 26.2205 115.395 25.5805 115.915ZM21.7555 113.89C22.0755 114.49 22.5755 114.79 23.2555 114.79C23.9355 114.79 24.4305 114.49 24.7405 113.89C25.0605 113.29 25.2205 112.495 25.2205 111.505C25.2205 110.515 25.0605 109.725 24.7405 109.135C24.4305 108.535 23.9355 108.235 23.2555 108.235C22.5755 108.235 22.0755 108.535 21.7555 109.135C21.4355 109.725 21.2755 110.515 21.2755 111.505C21.2755 112.495 21.4355 113.29 21.7555 113.89Z" fill="#51515C"/>
<path d="M7.79 66.5H5.66V64.43H0.875V62.75L4.85 56.495H7.79V62.555H9.08V64.43H7.79V66.5ZM5.66 62.555V58.385L2.96 62.555H5.66ZM16.4252 65.915C15.7852 66.425 15.0102 66.68 14.1002 66.68C13.1902 66.68 12.4102 66.425 11.7602 65.915C11.1202 65.395 10.6602 64.755 10.3802 63.995C10.1002 63.235 9.9602 62.405 9.9602 61.505C9.9602 60.605 10.1002 59.775 10.3802 59.015C10.6602 58.255 11.1202 57.62 11.7602 57.11C12.4102 56.6 13.1902 56.345 14.1002 56.345C15.0102 56.345 15.7852 56.6 16.4252 57.11C17.0652 57.62 17.5252 58.255 17.8052 59.015C18.0952 59.775 18.2402 60.605 18.2402 61.505C18.2402 62.405 18.0952 63.235 17.8052 63.995C17.5252 64.755 17.0652 65.395 16.4252 65.915ZM12.6002 63.89C12.9202 64.49 13.4202 64.79 14.1002 64.79C14.7802 64.79 15.2752 64.49 15.5852 63.89C15.9052 63.29 16.0652 62.495 16.0652 61.505C16.0652 60.515 15.9052 59.725 15.5852 59.135C15.2752 58.535 14.7802 58.235 14.1002 58.235C13.4202 58.235 12.9202 58.535 12.6002 59.135C12.2802 59.725 12.1202 60.515 12.1202 61.505C12.1202 62.495 12.2802 63.29 12.6002 63.89ZM25.727 65.915C25.087 66.425 24.312 66.68 23.402 66.68C22.492 66.68 21.712 66.425 21.062 65.915C20.422 65.395 19.962 64.755 19.682 63.995C19.402 63.235 19.262 62.405 19.262 61.505C19.262 60.605 19.402 59.775 19.682 59.015C19.962 58.255 20.422 57.62 21.062 57.11C21.712 56.6 22.492 56.345 23.402 56.345C24.312 56.345 25.087 56.6 25.727 57.11C26.367 57.62 26.827 58.255 27.107 59.015C27.397 59.775 27.542 60.605 27.542 61.505C27.542 62.405 27.397 63.235 27.107 63.995C26.827 64.755 26.367 65.395 25.727 65.915ZM21.902 63.89C22.222 64.49 22.722 64.79 23.402 64.79C24.082 64.79 24.577 64.49 24.887 63.89C25.207 63.29 25.367 62.495 25.367 61.505C25.367 60.515 25.207 59.725 24.887 59.135C24.577 58.535 24.082 58.235 23.402 58.235C22.722 58.235 22.222 58.535 21.902 59.135C21.582 59.725 21.422 60.515 21.422 61.505C21.422 62.495 21.582 63.29 21.902 63.89Z" fill="#51515C"/>
<path d="M5.09 16.68C3.44 16.68 2.155 16.18 1.235 15.18L2.42 13.695C3.12 14.425 4.005 14.79 5.075 14.79C5.645 14.79 6.095 14.65 6.425 14.37C6.765 14.08 6.935 13.725 6.935 13.305C6.935 12.855 6.775 12.495 6.455 12.225C6.135 11.955 5.695 11.82 5.135 11.82C4.305 11.82 3.605 12.09 3.035 12.63L1.55 12.24V6.495H8.42V8.37H3.68V10.815C4.24 10.255 4.975 9.975 5.885 9.975C6.775 9.975 7.53 10.27 8.15 10.86C8.78 11.45 9.095 12.235 9.095 13.215C9.095 14.275 8.73 15.12 8 15.75C7.27 16.37 6.3 16.68 5.09 16.68ZM16.601 15.915C15.961 16.425 15.186 16.68 14.276 16.68C13.366 16.68 12.586 16.425 11.936 15.915C11.296 15.395 10.836 14.755 10.556 13.995C10.276 13.235 10.136 12.405 10.136 11.505C10.136 10.605 10.276 9.775 10.556 9.015C10.836 8.255 11.296 7.62 11.936 7.11C12.586 6.6 13.366 6.345 14.276 6.345C15.186 6.345 15.961 6.6 16.601 7.11C17.241 7.62 17.701 8.255 17.981 9.015C18.271 9.775 18.416 10.605 18.416 11.505C18.416 12.405 18.271 13.235 17.981 13.995C17.701 14.755 17.241 15.395 16.601 15.915ZM12.776 13.89C13.096 14.49 13.596 14.79 14.276 14.79C14.956 14.79 15.451 14.49 15.761 13.89C16.081 13.29 16.241 12.495 16.241 11.505C16.241 10.515 16.081 9.725 15.761 9.135C15.451 8.535 14.956 8.235 14.276 8.235C13.596 8.235 13.096 8.535 12.776 9.135C12.456 9.725 12.296 10.515 12.296 11.505C12.296 12.495 12.456 13.29 12.776 13.89ZM25.9027 15.915C25.2627 16.425 24.4877 16.68 23.5777 16.68C22.6677 16.68 21.8877 16.425 21.2377 15.915C20.5977 15.395 20.1377 14.755 19.8577 13.995C19.5777 13.235 19.4377 12.405 19.4377 11.505C19.4377 10.605 19.5777 9.775 19.8577 9.015C20.1377 8.255 20.5977 7.62 21.2377 7.11C21.8877 6.6 22.6677 6.345 23.5777 6.345C24.4877 6.345 25.2627 6.6 25.9027 7.11C26.5427 7.62 27.0027 8.255 27.2827 9.015C27.5727 9.775 27.7177 10.605 27.7177 11.505C27.7177 12.405 27.5727 13.235 27.2827 13.995C27.0027 14.755 26.5427 15.395 25.9027 15.915ZM22.0777 13.89C22.3977 14.49 22.8977 14.79 23.5777 14.79C24.2577 14.79 24.7527 14.49 25.0627 13.89C25.3827 13.29 25.5427 12.495 25.5427 11.505C25.5427 10.515 25.3827 9.725 25.0627 9.135C24.7527 8.535 24.2577 8.235 23.5777 8.235C22.8977 8.235 22.3977 8.535 22.0777 9.135C21.7577 9.725 21.5977 10.515 21.5977 11.505C21.5977 12.495 21.7577 13.29 22.0777 13.89Z" fill="#51515C"/>
<line x1="41.5" y1="257.5" x2="879.5" y2="257.5" stroke="#51515C" stroke-linecap="round" stroke-linejoin="round" stroke-dasharray="3.5 3.5"/>
<line x1="41.5" y1="207.5" x2="878.5" y2="207.5" stroke="#51515C" stroke-linecap="round" stroke-linejoin="round" stroke-dasharray="3.5 3.5"/>
<line x1="41.5" y1="157.5" x2="879.5" y2="157.5" stroke="#51515C" stroke-linecap="round" stroke-linejoin="round" stroke-dasharray="3.5 3.5"/>
<line x1="41.5" y1="107.5" x2="879.5" y2="107.5" stroke="#51515C" stroke-linecap="round" stroke-linejoin="round" stroke-dasharray="3.5 3.5"/>
<line x1="41.5" y1="57.5" x2="878.5" y2="57.5" stroke="#51515C" stroke-linecap="round" stroke-linejoin="round" stroke-dasharray="3.5 3.5"/>
<line x1="42" y1="7.5" x2="881" y2="7.50007" stroke="#51515C" stroke-linecap="round" stroke-linejoin="round" stroke-dasharray="3.5 3.5"/>
<circle cx="41" cy="258" r="5" fill="#17569B"/>
<circle cx="116" cy="168" r="5" fill="#17569B"/>
<circle cx="191" cy="178" r="5" fill="#17569B"/>
<circle cx="266" cy="138" r="5" fill="#17569B"/>
<circle cx="341" cy="188" r="5" fill="#17569B"/>
<circle cx="416" cy="118" r="5" fill="#17569B"/>
<circle cx="491" cy="98" r="5" fill="#17569B"/>
<circle cx="566" cy="58" r="5" fill="#17569B"/>
<circle cx="641" cy="38" r="5" fill="#17569B"/>
<circle cx="716" cy="78" r="5" fill="#17569B"/>
<circle cx="791" cy="28" r="5" fill="#17569B"/>
<circle cx="880" cy="8" r="5" fill="#17569B"/>
<path d="M41.5 258L116 167.5L191.5 178.5L266 138L341 188.5L416 118.5L491 98L566 57.5L641 38L716 78L791 28.5L879.5 8.5" stroke="#17569B" stroke-width="2"/>
<path d="M116 167.5L41.5 258H879.5V8.5L791 28.5L716 78L641 38L566 57.5L491 98L416 118.5L341 188.5L266 138L191.5 178.5L116 167.5Z" fill="url(#paint0_linear_253_223)" stroke="#17569B" stroke-width="2"/>
<circle cx="63" cy="258" r="5" fill="#4CD964"/>
<circle cx="153" cy="198" r="5" fill="#4CD964"/>
<path d="M64 259.5L153.5 199.5L242.5 77.5L333 48.5L423.5 98L515 129L603.5 138L694 188.5L782.5 168L874 208" stroke="#4CD964" stroke-width="2"/>
<path d="M153.5 198.5L64 258.5H879.5V210L782.5 167L694 187.5L603.5 137L515 128L423.5 97L333 47.5L242.5 76.5L153.5 198.5Z" fill="url(#paint1_linear_253_223)" stroke="#4CD964" stroke-width="2"/>
<circle cx="243" cy="78" r="5" fill="#4CD964"/>
<circle cx="333" cy="48" r="5" fill="#4CD964"/>
<circle cx="423" cy="97" r="5" fill="#4CD964"/>
<circle cx="513" cy="128" r="5" fill="#4CD964"/>
<circle cx="603" cy="138" r="5" fill="#4CD964"/>
<circle cx="693" cy="188" r="5" fill="#4CD964"/>
<circle cx="783" cy="168" r="5" fill="#4CD964"/>
<circle cx="876" cy="208" r="5" fill="#4CD964"/>
<defs>
<linearGradient id="paint0_linear_253_223" x1="460.5" y1="-111" x2="460.5" y2="258" gradientUnits="userSpaceOnUse">
<stop stop-color="#17569B"/>
<stop offset="1" stop-color="#17569B" stop-opacity="0"/>
</linearGradient>
<linearGradient id="paint1_linear_253_223" x1="469" y1="-107" x2="469" y2="258.5" gradientUnits="userSpaceOnUse">
<stop stop-color="#4CD964"/>
<stop offset="1" stop-color="#4CD964" stop-opacity="0"/>
</linearGradient>
</defs>
</svg>
