<svg width="48" height="12" viewBox="0 0 48 12" fill="none" xmlns="http://www.w3.org/2000/svg">
<path d="M7.90371 11.7913H0V0.191304H3.08963V9.18261H7.90371V11.7913Z" fill="#FEFEFE"/>
<path d="M19.4518 10.313C18.2423 11.4377 16.7154 12 14.8712 12C13.027 12 11.4942 11.4377 10.2727 10.313C9.06321 9.18841 8.45845 7.75072 8.45845 6C8.45845 4.24928 9.06321 2.81159 10.2727 1.68696C11.4942 0.562319 13.027 0 14.8712 0C16.7154 0 18.2423 0.562319 19.4518 1.68696C20.6613 2.81159 21.2661 4.24928 21.2661 6C21.2661 7.75072 20.6613 9.18841 19.4518 10.313ZM14.8712 9.35652C15.8412 9.35652 16.6256 9.03768 17.2244 8.4C17.8231 7.76232 18.1225 6.96232 18.1225 6C18.1225 5.03768 17.8231 4.23768 17.2244 3.6C16.6256 2.96232 15.8412 2.64348 14.8712 2.64348C13.8893 2.64348 13.0989 2.96232 12.5001 3.6C11.9014 4.23768 11.602 5.03768 11.602 6C11.602 6.96232 11.9014 7.76232 12.5001 8.4C13.0989 9.03768 13.8893 9.35652 14.8712 9.35652Z" fill="#FEFEFE"/>
<path d="M28.696 12C26.8638 12 25.3249 11.4493 24.0795 10.3478C22.8341 9.24638 22.2114 7.7971 22.2114 6C22.2114 4.2029 22.8341 2.75362 24.0795 1.65217C25.3249 0.550725 26.8638 0 28.696 0C29.9414 0 30.9893 0.266667 31.8395 0.8C32.6898 1.33333 33.3484 2.0058 33.8154 2.81739L31.2288 4.12174C30.9893 3.70435 30.642 3.35652 30.1869 3.07826C29.7438 2.78841 29.2468 2.64348 28.696 2.64348C27.726 2.64348 26.9236 2.96812 26.2889 3.61739C25.6662 4.25507 25.3549 5.04928 25.3549 6C25.3549 6.95072 25.6662 7.75072 26.2889 8.4C26.9236 9.03768 27.726 9.35652 28.696 9.35652C29.1151 9.35652 29.5283 9.28696 29.9354 9.14783C30.3546 9.0087 30.6779 8.84638 30.9054 8.66087V7.75652H28.211V5.13043H33.9951V9.73913C32.582 11.2464 30.8156 12 28.696 12Z" fill="#FEFEFE"/>
<path d="M46.1857 10.313C44.9762 11.4377 43.4494 12 41.6052 12C39.761 12 38.2281 11.4377 37.0067 10.313C35.7972 9.18841 35.1924 7.75072 35.1924 6C35.1924 4.24928 35.7972 2.81159 37.0067 1.68696C38.2281 0.562319 39.761 0 41.6052 0C43.4494 0 44.9762 0.562319 46.1857 1.68696C47.3952 2.81159 48 4.24928 48 6C48 7.75072 47.3952 9.18841 46.1857 10.313ZM41.6052 9.35652C42.5752 9.35652 43.3596 9.03768 43.9583 8.4C44.5571 7.76232 44.8565 6.96232 44.8565 6C44.8565 5.03768 44.5571 4.23768 43.9583 3.6C43.3596 2.96232 42.5752 2.64348 41.6052 2.64348C40.6232 2.64348 39.8328 2.96232 39.2341 3.6C38.6353 4.23768 38.3359 5.03768 38.3359 6C38.3359 6.96232 38.6353 7.76232 39.2341 8.4C39.8328 9.03768 40.6232 9.35652 41.6052 9.35652Z" fill="#FEFEFE"/>
</svg>
