<svg width="18" height="18" viewBox="0 0 18 18" fill="none" xmlns="http://www.w3.org/2000/svg">
<path d="M9 16.5C8.17204 16.4959 7.50069 15.8279 7.4925 15H10.4925C10.4941 15.2005 10.4558 15.3994 10.38 15.585C10.1832 16.0365 9.78136 16.3658 9.3 16.47H9.29625H9.285H9.2715H9.26475C9.17761 16.4881 9.08899 16.4982 9 16.5ZM15 14.25H3V12.75L4.5 12V7.875C4.46049 6.81684 4.69945 5.76684 5.193 4.83C5.68428 3.96113 6.52402 3.34416 7.5 3.135V1.5H10.5V3.135C12.4342 3.5955 13.5 5.2785 13.5 7.875V12L15 12.75V14.25Z" fill="#FEFEFE"/>
</svg>
